<svg xmlns="http://www.w3.org/2000/svg" xmlns:xlink="http://www.w3.org/1999/xlink" version="1.1" x="0px" y="0px" viewBox="0 0 100 100" enable-background="new 0 0 100 100" xml:space="preserve"><path d="M78.166,68.123l-23.93-41.445c-0.875-1.516-2.492-2.45-4.243-2.45s-3.368,0.934-4.244,2.45l-24.1,41.744  c-0.875,1.516-0.875,3.383,0,4.9c0.875,1.516,2.493,2.449,4.244,2.449h48.201c0.006,0,0.012,0,0.014,0c2.707,0,4.9-2.193,4.9-4.9  C79.008,69.854,78.697,68.906,78.166,68.123z M50,37.549c3.5,0,4.354,2.631,4.139,4.138l-2.1,16.332  c-0.07,1.477-1.219,2.038-2.039,2.038c-0.919,0-1.958-0.484-2.039-2.038l-2.1-16.332C45.646,40.137,46.521,37.549,50,37.549z   M53.025,69.59c-0.789,0.799-1.895,1.262-3.025,1.262c-1.132,0-2.237-0.463-3.034-1.262c-0.797-0.797-1.251-1.9-1.251-3.033  c0-1.123,0.454-2.229,1.251-3.025c0.797-0.797,1.902-1.252,3.034-1.252c1.131,0,2.236,0.453,3.025,1.252  c0.806,0.797,1.26,1.902,1.26,3.025C54.285,67.689,53.831,68.793,53.025,69.59z"/></svg>